<svg width="68" height="15" viewBox="0 0 68 15" fill="none" xmlns="http://www.w3.org/2000/svg">
<g id="SVG">
<path id="Vector" d="M20.7099 11.1208H15.8198L14.6469 14.5894H12.575L17.2069 1.75826H19.3579L23.9898 14.5894H21.8828L20.7099 11.1208ZM16.3272 9.52089H20.2024L18.2903 3.8921H18.2376L16.3272 9.52089ZM25.082 5.23388H26.9133V6.82504H26.9572C27.268 5.7309 28.1038 5.08284 29.2065 5.08284C29.4822 5.08284 29.7227 5.12675 29.8649 5.15485V6.94271C29.7139 6.88124 29.3768 6.83558 29.0028 6.83558C27.7667 6.83558 27.0029 7.66277 27.0029 8.98699V14.5894H25.082V5.23388ZM36.8884 8.45309C36.6935 7.45729 35.9455 6.66522 34.6936 6.66522C33.2081 6.66522 32.2318 7.90162 32.2318 9.91077C32.2318 11.9656 33.2186 13.1563 34.7129 13.1563C35.8946 13.1563 36.6689 12.5065 36.8902 11.4229H38.7391C38.5336 13.4145 36.9428 14.7668 34.6936 14.7668C32.0176 14.7668 30.2758 12.935 30.2758 9.91253C30.2758 6.94271 32.0176 5.06704 34.676 5.06704C37.0851 5.06704 38.5512 6.61429 38.7215 8.45484L36.8884 8.45309ZM39.7259 11.9305C39.7259 10.2936 40.9796 9.28906 43.2025 9.16437L45.7625 9.01333V8.29327C45.7625 7.25357 45.0602 6.6301 43.8873 6.6301C42.7758 6.6301 42.0822 7.164 41.9137 7.99997H40.0999C40.207 6.31046 41.6468 5.06528 43.9575 5.06528C46.2243 5.06528 47.6729 6.2648 47.6729 8.14223V14.5894H45.8328V13.0509H45.7889C45.2463 14.0906 44.0646 14.7492 42.8373 14.7492C41.0059 14.7492 39.7259 13.6112 39.7259 11.9305ZM45.7625 11.0857V10.3481L43.4606 10.4903C42.314 10.5711 41.6643 11.0769 41.6643 11.8778C41.6643 12.6962 42.3403 13.2301 43.371 13.2301C44.7125 13.2283 45.7625 12.3045 45.7625 11.0857ZM49.0232 9.91253C49.0232 6.96027 50.5876 5.0846 52.9352 5.0846C54.2767 5.0846 55.3443 5.76075 55.8693 6.79167H55.9044V1.75826H57.8341V14.5894H55.9658V12.9983H55.9307C55.3794 14.0643 54.3136 14.7492 52.9528 14.7492C50.5876 14.7492 49.0232 12.863 49.0232 9.91253ZM50.988 9.91253C50.988 11.8866 51.9396 13.123 53.4602 13.123C54.9351 13.123 55.9219 11.869 55.9219 9.91253C55.9219 7.97363 54.9351 6.70211 53.4602 6.70211C51.9396 6.70211 50.988 7.94729 50.988 9.91253ZM67.6529 11.8409C67.386 13.548 65.7688 14.7668 63.6267 14.7668C60.8805 14.7668 59.2177 12.9087 59.2177 9.95644C59.2177 7.02174 60.9068 5.06528 63.5477 5.06528C66.1428 5.06528 67.7617 6.89705 67.7617 9.73339V10.392H61.1562V10.5079C61.1562 12.1342 62.1342 13.2108 63.6723 13.2108C64.7662 13.2108 65.5739 12.6593 65.832 11.8409C65.8303 11.8409 67.6529 11.8409 67.6529 11.8409ZM61.1632 9.04846H65.8391C65.7952 7.61711 64.8874 6.61254 63.5459 6.61254C62.2044 6.61254 61.2615 7.63467 61.1632 9.04846ZM7.72703 3.01047C8.20638 2.40983 8.53297 1.60371 8.44693 0.780029C7.74459 0.815154 6.88773 1.24368 6.39082 1.84432C5.94483 2.3589 5.55152 3.19839 5.65336 3.9887C6.44174 4.05719 7.23012 3.59354 7.72703 3.01047ZM8.43816 4.14149C7.29333 4.073 6.31883 4.7913 5.77276 4.7913C5.22493 4.7913 4.38738 4.17486 3.48311 4.19242C2.30493 4.20999 1.21102 4.8756 0.612276 5.93638C-0.618584 8.05793 0.287441 11.2051 1.48494 12.9315C2.06613 13.7868 2.76672 14.7282 3.68855 14.693C4.56121 14.6597 4.90185 14.1275 5.96239 14.1275C7.02117 14.1275 7.32845 14.693 8.25203 14.6755C9.20898 14.6579 9.80773 13.8202 10.3889 12.9649C11.0561 11.9902 11.3283 11.0488 11.3459 10.9979C11.3283 10.9803 9.50045 10.2796 9.48289 8.1756C9.46533 6.41408 10.9192 5.57635 10.9859 5.52366C10.1642 4.3136 8.88239 4.17662 8.43816 4.14149Z" fill="black"/>
</g>
</svg>
